<svg width="25" height="25" viewBox="0 0 25 25" fill="none" xmlns="http://www.w3.org/2000/svg">
<path d="M12.5 0C5.59495 0 0 5.59495 0 12.5C0 19.405 5.59495 25 12.5 25C19.405 25 25 19.405 25 12.5C25 5.59495 19.405 0 12.5 0ZM17.9387 13.4615H13.4615V17.9387C13.4615 18.4675 13.0288 18.9002 12.5 18.9002C12.2356 18.9002 11.9952 18.7921 11.8209 18.6178C11.6466 18.4435 11.5385 18.2031 11.5385 17.9387V13.4615H7.0613C6.79688 13.4615 6.55649 13.3534 6.38221 13.1791C6.20793 13.0048 6.09976 12.7644 6.09976 12.5C6.09976 11.9712 6.53245 11.5385 7.0613 11.5385H11.5385V7.0613C11.5385 6.53245 11.9712 6.09976 12.5 6.09976C13.0288 6.09976 13.4615 6.53245 13.4615 7.0613V11.5385H17.9387C18.4675 11.5385 18.9002 11.9712 18.9002 12.5C18.9002 13.0288 18.4675 13.4615 17.9387 13.4615Z" fill="#000000"/>
</svg>
