<svg width="159" height="121" viewBox="0 0 159 121" fill="none" xmlns="http://www.w3.org/2000/svg">
<g filter="url(#filter0_ddddii_63_229)">
<path d="M138 70.5447C138 72.7371 138 74.9295 137.935 77.2964C137.249 81.8013 135.691 85.752 133 89.2815C132.567 89.4492 132.202 89.5847 131.878 89.7858C127.78 92.3293 123.339 93.7391 118.501 93.742C97.3369 93.755 76.1733 93.7299 55.0097 93.76C49.5228 93.7678 44.3457 92.637 39.5312 89.9806C35.9081 87.9815 32.749 85.3975 30.2502 82.0966C27.1023 77.9383 24.9993 73.3257 24.2178 68.0989C23.6231 64.1217 23.8542 60.1832 24.2298 56.2318C24.4316 54.1093 24.7581 51.9987 25.0247 49.8388C25.0209 49.795 25.0195 49.707 25.0799 49.6765C25.182 49.5675 25.2235 49.4891 25.3054 49.3463C28.8709 45.3362 33.1284 42.4895 38.0984 40.6684C41.0124 39.6006 44.0386 39.2046 47.093 38.8751C47.4892 38.8324 48.0671 38.4733 48.1819 38.1329C49.2939 34.838 51.0491 31.9175 53.1998 29.2176C55.8821 25.8501 59.1611 23.175 62.9894 21.2443C68.6341 18.3977 74.6311 17.4958 80.9105 18.2592C85.2835 18.7908 89.2853 20.2946 93.0005 22.5997C96.8969 25.0172 100.105 28.15 102.481 32.0862C102.968 32.8931 103.484 33.0925 104.373 32.809C106.825 32.027 109.366 31.9797 111.853 32.4458C117.186 33.4449 121.336 36.2605 124.025 41.0306C125.829 44.2318 126.609 47.6761 126.173 51.3707C126.131 51.7294 126.377 52.2494 126.661 52.4967C127.773 53.465 129.028 54.276 130.097 55.2871C133.298 58.3177 135.582 61.9524 136.873 66.1774C137.312 67.6138 137.628 69.0878 138 70.5447ZM66.4163 74.4743C67.3531 76.4991 68.8646 77.8804 71.0258 78.4761C73.7006 79.2134 76.0059 78.402 77.8395 76.7704C79.0558 77.3886 80.0698 78.0943 81.1944 78.4418C85.4589 79.7595 89.9363 76.5319 90.1558 72.0725C90.2181 70.808 89.5748 69.9349 88.4766 69.7934C87.2964 69.6414 86.4744 70.321 86.2412 71.647C86.2142 71.8002 86.2206 71.9591 86.1954 72.1128C85.9409 73.6604 84.7624 74.7311 83.254 74.7893C81.6645 74.8507 80.3965 73.8601 80.0587 72.2852C79.9851 71.9421 79.9571 71.5885 79.8718 71.2488C79.6317 70.2932 78.9879 69.7867 78.0211 69.7754C77.053 69.764 76.3977 70.262 76.1357 71.2073C76.032 71.5815 76.0117 71.978 75.9258 72.3581C75.5861 73.8608 74.3248 74.8331 72.7867 74.7908C71.1144 74.7449 70.1115 73.7147 69.7653 71.6875C69.5366 70.3486 68.7355 69.6577 67.5613 69.7866C66.4164 69.9123 65.724 70.8205 65.8655 72.148C65.9432 72.8778 66.1733 73.5913 66.4163 74.4743ZM51.3769 66.4458C52.3618 66.3154 53.0344 65.8445 53.222 64.8056C53.3428 64.1361 53.5149 63.4505 54.3771 63.4334C55.3038 63.415 55.4442 64.1212 55.6152 64.8388C55.8828 65.962 56.6905 66.529 57.7203 66.4107C58.785 66.2885 59.4758 65.4505 59.464 64.2957C59.438 61.7389 57.1923 59.54 54.5453 59.4797C51.8745 59.4188 49.5662 61.4663 49.4069 64.0376C49.3181 65.4707 49.7621 66.0622 51.3769 66.4458ZM100.284 65.2409C100.534 64.5077 100.41 63.4507 101.568 63.4345C102.644 63.4194 102.615 64.3692 102.852 65.0981C103.171 66.0797 103.912 66.5103 104.931 66.3976C105.93 66.2871 106.565 65.534 106.608 64.4718C106.709 62.012 104.614 59.708 102.096 59.5095C99.2715 59.2869 96.9036 61.1746 96.5667 63.9162C96.4406 64.9422 96.702 65.8378 97.7004 66.2548C98.7205 66.6808 99.611 66.3848 100.284 65.2409Z" fill="#23334A"/>
<path d="M133.001 89.2815C130.766 92.4347 127.882 94.9884 124.407 96.7515C120.954 98.5029 117.291 99.6209 113.336 99.617C91.1903 99.5955 69.0448 99.6286 46.8993 99.5906C41.8054 99.5818 37.0755 98.0293 32.754 95.4144C30.6436 94.1374 28.6193 92.6166 26.8471 90.9049C23.8859 88.0447 21.5622 84.6396 20.1618 80.7525C19.5533 79.0636 19.1442 77.303 18.7179 75.5214C18.3081 73.8089 18.042 72.0618 18.0235 70.301C18.0189 69.867 18.0152 69.4292 18.0123 69.0053C17.9971 66.8291 18.2181 64.6572 18.6672 62.5278C18.6777 62.4779 18.6878 62.4299 18.6975 62.384C19.6191 58.0303 21.6075 54.1779 24.2307 50.6263C24.4126 50.3799 24.7413 50.0643 25.0313 49.8024C24.8278 51.8724 24.4317 54.1093 24.2299 56.2317C23.8543 60.1831 23.6232 64.1216 24.2179 68.0989C24.9994 73.3257 27.1024 77.9383 30.2503 82.0966C32.7491 85.3974 35.9082 87.9815 39.5313 89.9805C44.3458 92.637 49.5229 93.7677 55.0098 93.7599C76.1734 93.7298 97.337 93.7549 118.501 93.742C123.339 93.739 127.78 92.3292 131.878 89.7858C132.202 89.5846 132.567 89.4491 133.001 89.2815Z" fill="#DCE5F2"/>
<path d="M66.3757 74.3932C66.1735 73.5913 65.9434 72.8778 65.8657 72.148C65.7242 70.8205 66.4166 69.9123 67.5615 69.7866C68.7357 69.6577 69.5368 70.3486 69.7655 71.6875C70.1117 73.7147 71.1146 74.7449 72.7869 74.7908C74.325 74.833 75.5863 73.8608 75.926 72.358C76.0119 71.9779 76.0322 71.5814 76.1359 71.2072C76.3979 70.262 77.0532 69.764 78.0213 69.7753C78.9881 69.7867 79.6319 70.2931 79.872 71.2488C79.9573 71.5884 79.9853 71.9421 80.0589 72.2852C80.3967 73.8601 81.6647 74.8507 83.2542 74.7893C84.7626 74.7311 85.9411 73.6603 86.1956 72.1127C86.2208 71.9591 86.2144 71.8002 86.2414 71.647C86.4746 70.321 87.2966 69.6413 88.4768 69.7934C89.575 69.9349 90.2183 70.808 90.156 72.0725C89.9365 76.5319 85.4591 79.7594 81.1946 78.4418C80.07 78.0943 79.056 77.3886 77.8397 76.7704C76.0061 78.402 73.7008 79.2133 71.026 78.4761C68.8648 77.8804 67.3533 76.4991 66.3757 74.3932Z" fill="#DCE5F2"/>
<path d="M51.2908 66.4392C49.7622 66.0622 49.3182 65.4707 49.407 64.0376C49.5664 61.4663 51.8746 59.4188 54.5455 59.4797C57.1924 59.54 59.4382 61.7389 59.4642 64.2956C59.4759 65.4505 58.7851 66.2885 57.7205 66.4107C56.6906 66.529 55.8829 65.962 55.6153 64.8388C55.4444 64.1212 55.304 63.415 54.3772 63.4334C53.515 63.4505 53.343 64.1361 53.2221 64.8056C53.0345 65.8445 52.3619 66.3153 51.2908 66.4392Z" fill="#DCE5F2"/>
<path d="M100.249 65.3234C99.6111 66.3849 98.7205 66.6808 97.7005 66.2548C96.7021 65.8378 96.4407 64.9422 96.5668 63.9162C96.9037 61.1746 99.2716 59.2869 102.096 59.5095C104.614 59.708 106.709 62.012 106.608 64.4718C106.565 65.534 105.93 66.2872 104.931 66.3976C103.912 66.5103 103.171 66.0797 102.852 65.0981C102.615 64.3692 102.644 63.4194 101.568 63.4345C100.41 63.4507 100.534 64.5078 100.249 65.3234Z" fill="#DCE5F2"/>
</g>
<defs>
<filter id="filter0_ddddii_63_229" x="0.0114746" y="0" width="158.988" height="120.617" filterUnits="userSpaceOnUse" color-interpolation-filters="sRGB">
<feFlood flood-opacity="0" result="BackgroundImageFix"/>
<feColorMatrix in="SourceAlpha" type="matrix" values="0 0 0 0 0 0 0 0 0 0 0 0 0 0 0 0 0 0 127 0" result="hardAlpha"/>
<feOffset dx="6" dy="6"/>
<feGaussianBlur stdDeviation="7.5"/>
<feColorMatrix type="matrix" values="0 0 0 0 0.0941176 0 0 0 0 0.137255 0 0 0 0 0.2 0 0 0 0.9 0"/>
<feBlend mode="normal" in2="BackgroundImageFix" result="effect1_dropShadow_63_229"/>
<feColorMatrix in="SourceAlpha" type="matrix" values="0 0 0 0 0 0 0 0 0 0 0 0 0 0 0 0 0 0 127 0" result="hardAlpha"/>
<feOffset dx="-6" dy="-6"/>
<feGaussianBlur stdDeviation="6"/>
<feColorMatrix type="matrix" values="0 0 0 0 0.180392 0 0 0 0 0.262745 0 0 0 0 0.380392 0 0 0 0.9 0"/>
<feBlend mode="normal" in2="effect1_dropShadow_63_229" result="effect2_dropShadow_63_229"/>
<feColorMatrix in="SourceAlpha" type="matrix" values="0 0 0 0 0 0 0 0 0 0 0 0 0 0 0 0 0 0 127 0" result="hardAlpha"/>
<feOffset dx="6" dy="-6"/>
<feGaussianBlur stdDeviation="6"/>
<feColorMatrix type="matrix" values="0 0 0 0 0.0941176 0 0 0 0 0.137255 0 0 0 0 0.2 0 0 0 0.2 0"/>
<feBlend mode="normal" in2="effect2_dropShadow_63_229" result="effect3_dropShadow_63_229"/>
<feColorMatrix in="SourceAlpha" type="matrix" values="0 0 0 0 0 0 0 0 0 0 0 0 0 0 0 0 0 0 127 0" result="hardAlpha"/>
<feOffset dx="-6" dy="6"/>
<feGaussianBlur stdDeviation="6"/>
<feColorMatrix type="matrix" values="0 0 0 0 0.0941176 0 0 0 0 0.137255 0 0 0 0 0.2 0 0 0 0.2 0"/>
<feBlend mode="normal" in2="effect3_dropShadow_63_229" result="effect4_dropShadow_63_229"/>
<feBlend mode="normal" in="SourceGraphic" in2="effect4_dropShadow_63_229" result="shape"/>
<feColorMatrix in="SourceAlpha" type="matrix" values="0 0 0 0 0 0 0 0 0 0 0 0 0 0 0 0 0 0 127 0" result="hardAlpha"/>
<feOffset dx="-1" dy="-1"/>
<feGaussianBlur stdDeviation="1"/>
<feComposite in2="hardAlpha" operator="arithmetic" k2="-1" k3="1"/>
<feColorMatrix type="matrix" values="0 0 0 0 0.0941176 0 0 0 0 0.137255 0 0 0 0 0.2 0 0 0 0.5 0"/>
<feBlend mode="normal" in2="shape" result="effect5_innerShadow_63_229"/>
<feColorMatrix in="SourceAlpha" type="matrix" values="0 0 0 0 0 0 0 0 0 0 0 0 0 0 0 0 0 0 127 0" result="hardAlpha"/>
<feOffset dx="1" dy="1"/>
<feGaussianBlur stdDeviation="1"/>
<feComposite in2="hardAlpha" operator="arithmetic" k2="-1" k3="1"/>
<feColorMatrix type="matrix" values="0 0 0 0 0.180392 0 0 0 0 0.262745 0 0 0 0 0.380392 0 0 0 0.3 0"/>
<feBlend mode="normal" in2="effect5_innerShadow_63_229" result="effect6_innerShadow_63_229"/>
</filter>
</defs>
</svg>
