<svg width="13" height="13" viewBox="0 0 13 13" fill="none" xmlns="http://www.w3.org/2000/svg">
<path d="M11.7011 9.09302C12.4185 9.81042 12.4185 10.9736 11.7011 11.6909C10.9837 12.4082 9.8206 12.4082 9.10325 11.6909L1.30922 3.89673C0.591829 3.17933 0.591857 2.01619 1.30928 1.29883C2.02667 0.581497 3.18974 0.581525 3.90709 1.29889L11.7011 9.09302Z" fill="black"/>
<path d="M3.89684 11.7006C3.17948 12.4179 2.01642 12.418 1.29903 11.7006C0.581604 10.9833 0.581574 9.82012 1.29897 9.10272L9.093 1.30859C9.81035 0.591229 10.9734 0.591201 11.6908 1.30853C12.4082 2.0259 12.4083 3.18903 11.6909 3.90643L3.89684 11.7006Z" fill="black"/>
</svg>
