<svg width="153" height="115" viewBox="0 0 153 115" fill="none" xmlns="http://www.w3.org/2000/svg">
<g filter="url(#filter0_ddddii_25_78)">
<path d="M135 67.5447C135 69.7371 135 71.9295 134.935 74.2964C134.249 78.8013 132.691 82.752 130 86.2815C129.567 86.4492 129.202 86.5847 128.878 86.7858C124.78 89.3293 120.339 90.7391 115.501 90.742C94.337 90.755 73.1733 90.7299 52.0097 90.76C46.5228 90.7678 41.3457 89.637 36.5312 86.9806C32.9082 84.9815 29.7491 82.3975 27.2503 79.0966C24.1023 74.9383 21.9994 70.3257 21.2178 65.0989C20.6231 61.1217 20.8543 57.1832 21.2299 53.2318C21.4316 51.1093 21.7582 48.9987 22.0247 46.8388C22.021 46.795 22.0195 46.707 22.08 46.6765C22.182 46.5675 22.2235 46.4891 22.3055 46.3463C25.8709 42.3362 30.1284 39.4895 35.0984 37.6684C38.0124 36.6006 41.0386 36.2046 44.093 35.8751C44.4892 35.8324 45.0671 35.4733 45.182 35.1329C46.2939 31.838 48.0491 28.9175 50.1998 26.2176C52.8822 22.8501 56.1611 20.175 59.9894 18.2443C65.6341 15.3977 71.6311 14.4958 77.9105 15.2592C82.2835 15.7908 86.2854 17.2946 90.0006 19.5997C93.8969 22.0172 97.1049 25.15 99.4813 29.0862C99.9685 29.8931 100.484 30.0925 101.373 29.809C103.825 29.027 106.366 28.9797 108.853 29.4458C114.186 30.4449 118.336 33.2605 121.025 38.0306C122.829 41.2318 123.609 44.6761 123.173 48.3707C123.131 48.7294 123.377 49.2494 123.661 49.4967C124.773 50.465 126.028 51.276 127.097 52.2871C130.298 55.3177 132.582 58.9524 133.873 63.1774C134.312 64.6138 134.628 66.0878 135 67.5447ZM63.4164 71.4743C64.3531 73.4991 65.8646 74.8804 68.0258 75.4761C70.7006 76.2134 73.0059 75.402 74.8395 73.7704C76.0558 74.3886 77.0698 75.0943 78.1945 75.4418C82.4589 76.7595 86.9364 73.5319 87.1559 69.0725C87.2181 67.808 86.5748 66.9349 85.4767 66.7934C84.2964 66.6414 83.4744 67.321 83.2412 68.647C83.2143 68.8002 83.2207 68.9591 83.1954 69.1128C82.9409 70.6604 81.7624 71.7311 80.254 71.7893C78.6646 71.8507 77.3965 70.8601 77.0588 69.2852C76.9852 68.9421 76.9572 68.5885 76.8718 68.2488C76.6317 67.2932 75.9879 66.7867 75.0211 66.7754C74.053 66.764 73.3977 67.262 73.1358 68.2073C73.0321 68.5815 73.0117 68.978 72.9258 69.3581C72.5861 70.8608 71.3249 71.8331 69.7867 71.7908C68.1145 71.7449 67.1115 70.7147 66.7653 68.6875C66.5366 67.3486 65.7355 66.6577 64.5613 66.7866C63.4164 66.9123 62.724 67.8205 62.8655 69.148C62.9432 69.8778 63.1734 70.5913 63.4164 71.4743ZM48.3769 63.4458C49.3618 63.3154 50.0344 62.8445 50.222 61.8056C50.3429 61.1361 50.5149 60.4505 51.3771 60.4334C52.3039 60.415 52.4443 61.1212 52.6152 61.8388C52.8828 62.962 53.6905 63.529 54.7204 63.4107C55.785 63.2885 56.4758 62.4505 56.4641 61.2957C56.4381 58.7389 54.1923 56.54 51.5454 56.4797C48.8745 56.4188 46.5662 58.4663 46.4069 61.0376C46.3181 62.4707 46.7621 63.0622 48.3769 63.4458ZM97.2843 62.2409C97.5342 61.5077 97.41 60.4507 98.5678 60.4345C99.6438 60.4194 99.6151 61.3692 99.8518 62.0981C100.171 63.0797 100.912 63.5103 101.931 63.3976C102.93 63.2871 103.565 62.534 103.608 61.4718C103.709 59.012 101.614 56.708 99.0957 56.5095C96.2715 56.2869 93.9037 58.1746 93.5667 60.9162C93.4406 61.9422 93.7021 62.8378 94.7005 63.2548C95.7205 63.6808 96.6111 63.3848 97.2843 62.2409Z" fill="#DCE5F2"/>
<path d="M130.001 86.2815C127.766 89.4348 124.882 91.9884 121.407 93.7516C117.954 95.5029 114.291 96.6209 110.336 96.617C88.1903 96.5956 66.0448 96.6287 43.8993 96.5906C38.8054 96.5819 34.0755 95.0293 29.754 92.4144C27.6436 91.1374 25.6193 89.6167 23.8471 87.9049C20.8859 85.0448 18.5622 81.6397 17.1618 77.7525C16.5533 76.0637 16.1442 74.303 15.7179 72.5215C15.3081 70.809 15.042 69.0618 15.0235 67.301C15.0189 66.8671 15.0152 66.4292 15.0123 66.0053C14.9971 63.8292 15.2181 61.6572 15.6672 59.5279C15.6777 59.478 15.6878 59.4299 15.6975 59.3841C16.6191 55.0304 18.6075 51.1779 21.2307 47.6263C21.4126 47.38 21.7413 47.0644 22.0313 46.8025C21.8278 48.8724 21.4317 51.1093 21.2299 53.2318C20.8543 57.1832 20.6232 61.1217 21.2179 65.0989C21.9994 70.3257 24.1024 74.9383 27.2503 79.0966C29.7491 82.3974 32.9082 84.9815 36.5313 86.9806C41.3458 89.637 46.5229 90.7678 52.0098 90.76C73.1734 90.7299 94.337 90.755 115.501 90.742C120.339 90.7391 124.78 89.3293 128.878 86.7858C129.202 86.5847 129.567 86.4492 130.001 86.2815Z" fill="#005393"/>
<path d="M63.3757 71.3932C63.1735 70.5913 62.9434 69.8778 62.8656 69.148C62.7241 67.8205 63.4165 66.9123 64.5614 66.7866C65.7356 66.6577 66.5368 67.3486 66.7654 68.6875C67.1116 70.7147 68.1146 71.7449 69.7868 71.7908C71.325 71.8331 72.5862 70.8608 72.9259 69.358C73.0118 68.9779 73.0322 68.5815 73.1359 68.2073C73.3978 67.262 74.0531 66.764 75.0212 66.7754C75.988 66.7867 76.6318 67.2931 76.8719 68.2488C76.9573 68.5884 76.9853 68.9421 77.0589 69.2852C77.3966 70.8601 78.6647 71.8507 80.2541 71.7893C81.7625 71.7311 82.941 70.6604 83.1955 69.1127C83.2208 68.9591 83.2144 68.8002 83.2413 68.647C83.4745 67.321 84.2965 66.6414 85.4768 66.7934C86.5749 66.9349 87.2182 67.808 87.156 69.0725C86.9365 73.5319 82.459 76.7594 78.1946 75.4418C77.0699 75.0943 76.0559 74.3886 74.8396 73.7704C73.006 75.402 70.7008 76.2134 68.0259 75.4761C65.8647 74.8804 64.3532 73.4991 63.3757 71.3932Z" fill="#005393"/>
<path d="M48.2909 63.4392C46.7623 63.0622 46.3183 62.4707 46.4071 61.0376C46.5664 58.4663 48.8747 56.4188 51.5455 56.4797C54.1925 56.54 56.4382 58.7389 56.4642 61.2956C56.476 62.4505 55.7852 63.2885 54.7205 63.4107C53.6907 63.529 52.883 62.962 52.6154 61.8388C52.4444 61.1212 52.304 60.415 51.3773 60.4334C50.5151 60.4505 50.343 61.1361 50.2222 61.8056C50.0346 62.8445 49.362 63.3153 48.2909 63.4392Z" fill="#005393"/>
<path d="M97.2493 62.3234C96.611 63.3849 95.7205 63.6808 94.7005 63.2548C93.7021 62.8378 93.4406 61.9422 93.5667 60.9162C93.9037 58.1746 96.2715 56.2869 99.0956 56.5095C101.614 56.708 103.709 59.012 103.608 61.4718C103.565 62.534 102.93 63.2872 101.931 63.3976C100.912 63.5103 100.171 63.0797 99.8518 62.0981C99.6151 61.3692 99.6437 60.4194 98.5678 60.4345C97.4099 60.4507 97.5342 61.5078 97.2493 62.3234Z" fill="#005393"/>
</g>
<defs>
<filter id="filter0_ddddii_25_78" x="0.0115356" y="0" width="152.988" height="114.617" filterUnits="userSpaceOnUse" color-interpolation-filters="sRGB">
<feFlood flood-opacity="0" result="BackgroundImageFix"/>
<feColorMatrix in="SourceAlpha" type="matrix" values="0 0 0 0 0 0 0 0 0 0 0 0 0 0 0 0 0 0 127 0" result="hardAlpha"/>
<feOffset dx="5" dy="5"/>
<feGaussianBlur stdDeviation="6.5"/>
<feColorMatrix type="matrix" values="0 0 0 0 0.701961 0 0 0 0 0.701961 0 0 0 0 0.701961 0 0 0 0.9 0"/>
<feBlend mode="normal" in2="BackgroundImageFix" result="effect1_dropShadow_25_78"/>
<feColorMatrix in="SourceAlpha" type="matrix" values="0 0 0 0 0 0 0 0 0 0 0 0 0 0 0 0 0 0 127 0" result="hardAlpha"/>
<feOffset dx="-5" dy="-5"/>
<feGaussianBlur stdDeviation="5"/>
<feColorMatrix type="matrix" values="0 0 0 0 0.94902 0 0 0 0 0.988235 0 0 0 0 1 0 0 0 0.9 0"/>
<feBlend mode="normal" in2="effect1_dropShadow_25_78" result="effect2_dropShadow_25_78"/>
<feColorMatrix in="SourceAlpha" type="matrix" values="0 0 0 0 0 0 0 0 0 0 0 0 0 0 0 0 0 0 127 0" result="hardAlpha"/>
<feOffset dx="5" dy="-5"/>
<feGaussianBlur stdDeviation="5"/>
<feColorMatrix type="matrix" values="0 0 0 0 0.701961 0 0 0 0 0.701961 0 0 0 0 0.701961 0 0 0 0.2 0"/>
<feBlend mode="normal" in2="effect2_dropShadow_25_78" result="effect3_dropShadow_25_78"/>
<feColorMatrix in="SourceAlpha" type="matrix" values="0 0 0 0 0 0 0 0 0 0 0 0 0 0 0 0 0 0 127 0" result="hardAlpha"/>
<feOffset dx="-5" dy="5"/>
<feGaussianBlur stdDeviation="5"/>
<feColorMatrix type="matrix" values="0 0 0 0 0.701961 0 0 0 0 0.701961 0 0 0 0 0.701961 0 0 0 0.2 0"/>
<feBlend mode="normal" in2="effect3_dropShadow_25_78" result="effect4_dropShadow_25_78"/>
<feBlend mode="normal" in="SourceGraphic" in2="effect4_dropShadow_25_78" result="shape"/>
<feColorMatrix in="SourceAlpha" type="matrix" values="0 0 0 0 0 0 0 0 0 0 0 0 0 0 0 0 0 0 127 0" result="hardAlpha"/>
<feOffset dx="-1" dy="-1"/>
<feGaussianBlur stdDeviation="1"/>
<feComposite in2="hardAlpha" operator="arithmetic" k2="-1" k3="1"/>
<feColorMatrix type="matrix" values="0 0 0 0 0.701961 0 0 0 0 0.701961 0 0 0 0 0.701961 0 0 0 0.5 0"/>
<feBlend mode="normal" in2="shape" result="effect5_innerShadow_25_78"/>
<feColorMatrix in="SourceAlpha" type="matrix" values="0 0 0 0 0 0 0 0 0 0 0 0 0 0 0 0 0 0 127 0" result="hardAlpha"/>
<feOffset dx="1" dy="1"/>
<feGaussianBlur stdDeviation="1"/>
<feComposite in2="hardAlpha" operator="arithmetic" k2="-1" k3="1"/>
<feColorMatrix type="matrix" values="0 0 0 0 0.94902 0 0 0 0 0.988235 0 0 0 0 1 0 0 0 0.3 0"/>
<feBlend mode="normal" in2="effect5_innerShadow_25_78" result="effect6_innerShadow_25_78"/>
</filter>
</defs>
</svg>
