<svg width="200" height="201" viewBox="0 0 200 201" fill="none" xmlns="http://www.w3.org/2000/svg">
<path d="M72.7254 0.100061C64.6259 0.882623 58.4828 2.13472 52.3005 4.32589C24.4413 14.0297 4.8773 37.976 0.494951 67.7525C-0.248483 72.6827 -0.131098 84.695 0.690591 89.8207C3.39043 106.92 10.9421 121.906 22.7588 133.566C37.8623 148.552 56.9176 156.378 78.2033 156.378C92.9546 156.378 108.097 152.034 119.875 144.404C121.401 143.426 122.731 142.683 122.77 142.761C122.809 142.8 123.201 143.739 123.592 144.835C123.983 145.891 124.805 147.496 125.392 148.356C125.979 149.217 137.169 160.603 150.277 173.672C176.18 199.536 175.437 198.871 180.915 199.888C185.766 200.788 191.44 198.949 195.118 195.232C198.835 191.554 200.674 185.88 199.774 181.028C198.757 175.55 199.422 176.294 173.558 150.391C160.49 137.283 149.103 126.092 148.243 125.506C147.382 124.919 145.817 124.097 144.721 123.706C143.665 123.314 142.726 122.923 142.647 122.884C142.569 122.845 143.391 121.397 144.486 119.675C152.234 107.311 156.264 93.1466 156.264 78.3171C156.264 57.1488 148.516 38.2108 133.726 23.1074C122.105 11.2907 107.08 3.62159 90.1374 0.843495C86.4593 0.256574 75.7774 -0.212963 72.7254 0.100061ZM86.5376 20.4075C95.7718 21.777 105.241 25.6116 112.44 30.8939C132.904 45.919 141.356 71.9392 133.687 96.316C129.383 109.972 118.897 122.571 105.906 129.653C92.0547 137.205 74.4079 138.692 59.4218 133.605C21.4676 120.654 7.42062 74.326 31.7974 42.554C42.7924 28.2723 59.461 20.0163 77.7338 19.8597C80.4727 19.8597 84.4247 20.0945 86.5376 20.4075Z" fill="#005393"/>
</svg>
