<svg width="53" height="53" viewBox="0 0 53 53" fill="none" xmlns="http://www.w3.org/2000/svg">
<g filter="url(#filter0_ddddii_84_220)">
<path d="M22 16C21.9996 18.7813 22.8276 21.4997 24.3785 23.8084C25.9293 26.1172 28.1327 27.9117 30.7076 28.9631C33.2824 30.0145 36.1121 30.2752 38.8358 29.7118C41.5594 29.1485 44.0535 27.7866 46 25.8V26C46 37.046 37.046 46 26 46C14.954 46 6 37.046 6 26C6 14.954 14.954 6 26 6H26.2C24.8681 7.30225 23.8103 8.85793 23.089 10.5754C22.3676 12.2928 21.9974 14.1372 22 16ZM10 26C9.99855 29.57 11.1911 33.0379 13.3878 35.8519C15.5845 38.666 18.6593 40.6646 22.1228 41.5296C25.5864 42.3947 29.2398 42.0766 32.5017 40.626C35.7636 39.1753 38.4467 36.6754 40.124 33.524C37.1389 34.2273 34.0236 34.1562 31.0736 33.3174C28.1237 32.4787 25.437 30.9002 23.2684 28.7316C21.0998 26.563 19.5213 23.8763 18.6826 20.9264C17.8438 17.9764 17.7727 14.8611 18.476 11.876C15.9152 13.2403 13.7736 15.2753 12.2805 17.7633C10.7875 20.2512 9.99915 23.0984 10 26Z" fill="#005393"/>
</g>
<defs>
<filter id="filter0_ddddii_84_220" x="0" y="0" width="53" height="53" filterUnits="userSpaceOnUse" color-interpolation-filters="sRGB">
<feFlood flood-opacity="0" result="BackgroundImageFix"/>
<feColorMatrix in="SourceAlpha" type="matrix" values="0 0 0 0 0 0 0 0 0 0 0 0 0 0 0 0 0 0 127 0" result="hardAlpha"/>
<feOffset dx="2" dy="2"/>
<feGaussianBlur stdDeviation="2.5"/>
<feColorMatrix type="matrix" values="0 0 0 0 0.72549 0 0 0 0 0.752941 0 0 0 0 0.796078 0 0 0 0.9 0"/>
<feBlend mode="normal" in2="BackgroundImageFix" result="effect1_dropShadow_84_220"/>
<feColorMatrix in="SourceAlpha" type="matrix" values="0 0 0 0 0 0 0 0 0 0 0 0 0 0 0 0 0 0 127 0" result="hardAlpha"/>
<feOffset dx="-2" dy="-2"/>
<feGaussianBlur stdDeviation="2"/>
<feColorMatrix type="matrix" values="0 0 0 0 1 0 0 0 0 1 0 0 0 0 1 0 0 0 0.9 0"/>
<feBlend mode="normal" in2="effect1_dropShadow_84_220" result="effect2_dropShadow_84_220"/>
<feColorMatrix in="SourceAlpha" type="matrix" values="0 0 0 0 0 0 0 0 0 0 0 0 0 0 0 0 0 0 127 0" result="hardAlpha"/>
<feOffset dx="2" dy="-2"/>
<feGaussianBlur stdDeviation="2"/>
<feColorMatrix type="matrix" values="0 0 0 0 0.72549 0 0 0 0 0.752941 0 0 0 0 0.796078 0 0 0 0.2 0"/>
<feBlend mode="normal" in2="effect2_dropShadow_84_220" result="effect3_dropShadow_84_220"/>
<feColorMatrix in="SourceAlpha" type="matrix" values="0 0 0 0 0 0 0 0 0 0 0 0 0 0 0 0 0 0 127 0" result="hardAlpha"/>
<feOffset dx="-2" dy="2"/>
<feGaussianBlur stdDeviation="2"/>
<feColorMatrix type="matrix" values="0 0 0 0 0.72549 0 0 0 0 0.752941 0 0 0 0 0.796078 0 0 0 0.2 0"/>
<feBlend mode="normal" in2="effect3_dropShadow_84_220" result="effect4_dropShadow_84_220"/>
<feBlend mode="normal" in="SourceGraphic" in2="effect4_dropShadow_84_220" result="shape"/>
<feColorMatrix in="SourceAlpha" type="matrix" values="0 0 0 0 0 0 0 0 0 0 0 0 0 0 0 0 0 0 127 0" result="hardAlpha"/>
<feOffset dx="-1" dy="-1"/>
<feGaussianBlur stdDeviation="1"/>
<feComposite in2="hardAlpha" operator="arithmetic" k2="-1" k3="1"/>
<feColorMatrix type="matrix" values="0 0 0 0 0.72549 0 0 0 0 0.752941 0 0 0 0 0.796078 0 0 0 0.5 0"/>
<feBlend mode="normal" in2="shape" result="effect5_innerShadow_84_220"/>
<feColorMatrix in="SourceAlpha" type="matrix" values="0 0 0 0 0 0 0 0 0 0 0 0 0 0 0 0 0 0 127 0" result="hardAlpha"/>
<feOffset dx="1" dy="1"/>
<feGaussianBlur stdDeviation="1"/>
<feComposite in2="hardAlpha" operator="arithmetic" k2="-1" k3="1"/>
<feColorMatrix type="matrix" values="0 0 0 0 1 0 0 0 0 1 0 0 0 0 1 0 0 0 0.3 0"/>
<feBlend mode="normal" in2="effect5_innerShadow_84_220" result="effect6_innerShadow_84_220"/>
</filter>
</defs>
</svg>
